<svg height="480pt" viewBox="-32 0 480 480.14951" width="480pt" xmlns="http://www.w3.org/2000/svg"><path d="m8.074219 152.148438h400v320h-400zm0 0" fill="#7d4739"/><path d="m8.074219 152.148438h336v320h-336zm0 0" fill="#ce893d"/><path d="m240.074219 264.148438h168v96h-168zm0 0" fill="#69382c"/><path d="m304.074219 312.148438c0 8.835937-7.164063 16-16 16-8.835938 0-16-7.164063-16-16 0-8.835938 7.164062-16 16-16 8.835937 0 16 7.164062 16 16zm0 0" fill="#d95354"/><g fill="#7d4739"><path d="m280.074219 184.148438h32v16h-32zm0 0"/><path d="m232.074219 184.148438h32v16h-32zm0 0"/><path d="m184.074219 184.148438h32v16h-32zm0 0"/><path d="m136.074219 184.148438h32v16h-32zm0 0"/><path d="m88.074219 184.148438h32v16h-32zm0 0"/><path d="m40.074219 184.148438h32v16h-32zm0 0"/><path d="m280.074219 424.148438h32v16h-32zm0 0"/><path d="m232.074219 424.148438h32v16h-32zm0 0"/><path d="m184.074219 424.148438h32v16h-32zm0 0"/><path d="m136.074219 424.148438h32v16h-32zm0 0"/><path d="m88.074219 424.148438h32v16h-32zm0 0"/><path d="m40.074219 424.148438h32v16h-32zm0 0"/></g><path d="m278.074219 80.148438c0 39.765624-32.234375 72-72 72s-72-32.234376-72-72c0-39.761719 32.234375-72 72-72s72 32.238281 72 72zm0 0" fill="#ffcb5a"/><path d="m206.546875 128.148438h-.472656c-10.121094.019531-19.988281-3.183594-28.167969-9.152344l9.410156-12.941406c5.441406 3.976562 12.015625 6.113281 18.757813 6.09375zm19.535156-4.375-6.679687-14.527344c6.121094-2.84375 11.207031-7.523438 14.542968-13.394532l13.921876 7.898438c-5 8.777344-12.617188 15.777344-21.785157 20.023438zm-61.519531-19.542969c-4.25-7.3125-6.488281-15.621094-6.488281-24.082031 0-1.632813.082031-3.246094.242187-4.847657l15.925782 1.601563c-.109376 1.078125-.167969 2.164062-.167969 3.246094.007812 5.621093 1.496093 11.140624 4.320312 16zm89.296875-19.519531-15.929687-1.488282c.097656-1.007812.144531-2.03125.144531-3.074218.007812-5.695313-1.511719-11.289063-4.398438-16.199219l13.773438-8.136719c4.34375 7.375 6.632812 15.777344 6.625 24.335938 0 1.535156-.070313 3.066406-.214844 4.5625zm-75.5625-20.433594-13.871094-8c5.050781-8.753906 12.703125-15.710938 21.898438-19.902344l6.597656 14.566406c-6.140625 2.816406-11.253906 7.476563-14.625 13.335938zm46.402344-10.144532c-5.421875-3.90625-11.941407-6-18.625-5.984374l-.238281-16h.238281c10.027343-.019532 19.804687 3.125 27.9375 8.984374zm0 0" fill="#e6a71e"/><path d="m8.074219 480.148438h400c4.417969 0 8-3.582032 8-8v-320c0-4.417969-3.582031-8-8-8h-154.199219c27.648438-20.601563 38.988281-56.601563 28.132812-89.328126-10.851562-32.726562-41.453124-54.820312-75.933593-54.820312s-65.082031 22.09375-75.933594 54.820312c-10.851563 32.726563.484375 68.726563 28.132813 89.328126h-150.199219c-4.417969 0-8.0000002 3.582031-8.0000002 8v320c0 4.417968 3.5820312 8 8.0000002 8zm344-16v-96h48v96zm0-192h48v80h-48zm-16 80h-88v-80h88zm64-96h-48v-96h48zm-258-176c0-35.34375 28.65625-64 64-64 35.347656 0 64 28.65625 64 64 0 35.347656-28.652344 64-64 64-35.328125-.039063-63.960938-28.667969-64-64zm-126 80h320v96h-96c-4.417969 0-8 3.582031-8 8v96c0 4.417968 3.582031 8 8 8h96v96h-320zm0 0"/><path d="m288.074219 336.148438c13.253906 0 24-10.742188 24-24 0-13.253907-10.746094-24-24-24-13.253907 0-24 10.746093-24 24 0 13.257812 10.746093 24 24 24zm0-32c4.417969 0 8 3.582031 8 8 0 4.417968-3.582031 8-8 8s-8-3.582032-8-8c0-4.417969 3.582031-8 8-8zm0 0"/><path d="m280.074219 184.148438h32v16h-32zm0 0"/><path d="m232.074219 184.148438h32v16h-32zm0 0"/><path d="m184.074219 184.148438h32v16h-32zm0 0"/><path d="m136.074219 184.148438h32v16h-32zm0 0"/><path d="m88.074219 184.148438h32v16h-32zm0 0"/><path d="m40.074219 184.148438h32v16h-32zm0 0"/><path d="m280.074219 424.148438h32v16h-32zm0 0"/><path d="m232.074219 424.148438h32v16h-32zm0 0"/><path d="m184.074219 424.148438h32v16h-32zm0 0"/><path d="m136.074219 424.148438h32v16h-32zm0 0"/><path d="m88.074219 424.148438h32v16h-32zm0 0"/><path d="m40.074219 424.148438h32v16h-32zm0 0"/><path d="m192.921875 50.972656-6.597656-14.566406c-9.195313 4.191406-16.847657 11.152344-21.898438 19.902344l13.871094 8c3.371094-5.855469 8.484375-10.519532 14.625-13.335938zm0 0"/><path d="m187.316406 106.054688-9.410156 12.941406c8.179688 5.96875 18.046875 9.171875 28.167969 9.152344h.472656l-.472656-16c-6.742188.019531-13.316407-2.117188-18.757813-6.09375zm0 0"/><path d="m174.074219 80.148438c0-1.089844.054687-2.179688.167969-3.261719l-15.925782-1.601563c-.160156 1.601563-.242187 3.214844-.242187 4.847656 0 8.460938 2.238281 16.769532 6.488281 24.082032l13.832031-8.066406c-2.824219-4.859376-4.3125-10.378907-4.320312-16zm0 0"/><path d="m224.683594 54.132812 9.328125-13c-8.132813-5.859374-17.910157-9.003906-27.9375-8.984374h-.238281l.238281 16c6.679687-.011719 13.191406 2.082031 18.609375 5.984374zm0 0"/><path d="m238.074219 80.148438c0 1.066406-.046875 2.089843-.144531 3.074218l15.929687 1.488282c.144531-1.496094.214844-3.027344.214844-4.5625.003906-8.558594-2.285157-16.960938-6.632813-24.335938l-13.765625 8.136719c2.886719 4.910156 4.40625 10.503906 4.398438 16.199219zm0 0"/><path d="m219.402344 109.246094 6.679687 14.527344c9.164063-4.238282 16.78125-11.230469 21.785157-20l-13.921876-7.894532c-3.339843 5.855469-8.421874 10.53125-14.542968 13.367188zm0 0"/></svg>