<?xml version="1.0" encoding="utf-8"?>
<!-- Generator: Adobe Illustrator 19.0.0, SVG Export Plug-In . SVG Version: 6.00 Build 0)  -->
<svg version="1.1" id="Layer_1" xmlns="http://www.w3.org/2000/svg" xmlns:xlink="http://www.w3.org/1999/xlink" x="0px" y="0px"
	 viewBox="0 0 208 212" style="enable-background:new 0 0 208 212;" xml:space="preserve">
<style type="text/css">
	.st0{fill:#9BCFE0;}
	.st1{clip-path:url(#XMLID_4_);fill:#D91C68;}
	.st2{fill:#B70606;}
	.st3{fill:#3EA34E;}
	.st4{fill:#2EB801;}
	.st5{fill:#00726C;}
	.st6{opacity:0.41;fill:url(#XMLID_5_);}
	.st7{opacity:0.28;fill:#FFFFFF;}
</style>
<g id="XMLID_280_">
	<circle id="XMLID_196_" class="st0" cx="106.1" cy="105.8" r="98.1"/>
	<g id="XMLID_200_">
		<defs>
			<rect id="XMLID_201_" x="-37.6" y="105.4" width="296.5" height="117.9"/>
		</defs>
		<clipPath id="XMLID_4_">
			<use xlink:href="#XMLID_201_"  style="overflow:visible;"/>
		</clipPath>
		<circle id="XMLID_202_" class="st1" cx="105.6" cy="105.4" r="98.1"/>
	</g>
	<g id="XMLID_169_">
		<path id="XMLID_189_" class="st2" d="M153.8,112.6c0,0-14.7,0-18.9,0c-4.2,0-4.8,4.8-4.8,4.8v41.7c1.5,4.7,4.5,4.3,4.5,4.3
			s16.3,0,19.4,0c3.1,0,4.3-4.3,4.3-4.3s0-38.2,0-41.9S153.8,112.6,153.8,112.6z M139.3,157.3c0,0.2-0.2,0.4-0.4,0.4h-1.5
			c-0.2,0-0.4-0.2-0.4-0.4v-1.6c0-0.2,0.2-0.4,0.4-0.4h1.5c0.2,0,0.4,0.2,0.4,0.4V157.3z M146.8,158.5c0,0.2-0.2,0.4-0.4,0.4h-3.7
			c-0.2,0-0.4-0.2-0.4-0.4v-3.9c0-0.2,0.2-0.4,0.4-0.4h3.7c0.2,0,0.4,0.2,0.4,0.4V158.5z M151.9,157.3c0,0.2-0.2,0.4-0.4,0.4H150
			c-0.2,0-0.4-0.2-0.4-0.4v-1.6c0-0.2,0.2-0.4,0.4-0.4h1.5c0.2,0,0.4,0.2,0.4,0.4V157.3z M154.8,151.5h-20.9v-34.1h20.9V151.5z"/>
		<path id="XMLID_188_" class="st3" d="M141.5,138c0,0-3.7-1.3-6.1-6.8c0,0-0.6,1.2-1.6,2.5v8.5C133.8,142.2,139.7,139.6,141.5,138z
			"/>
		<path id="XMLID_187_" class="st3" d="M130.1,138.1c0,0-2.7,3.7-10.4,4.6c0,0,3.8,1.8,10.4,0.4V138.1z"/>
		<path id="XMLID_186_" class="st4" d="M130.1,145.7c0,0-6.5-1.6-9-2.5c0,0,3.5,1,9-0.1V145.7z"/>
		<path id="XMLID_185_" class="st4" d="M133.8,142.2c0,0,7.3-2.9,11-7.6c3.8-4.7,7-10.2,8.4-14.9l1.5,1.1v24.5c0,0-9.8,3.2-20.9,1
			V142.2z"/>
		<path id="XMLID_170_" class="st4" d="M158.4,123.1l13.1,8.6c0,0-3.7,8.8-13.1,12.3V123.1z"/>
	</g>
	<path id="XMLID_136_" class="st5" d="M118.5,58.7c0,0-10-3.9-25.3,0L81.2,38c0,0,5-3,9.9-4l4.2,15c0,0,0.7,1.7,3,1.1
		c0,0,2.1-0.6,1.5-2.8C99.3,44.9,95.8,33,95.8,33s12.7-2.7,22.4,0.4l-3.2,6.8c0,0-0.6,1.4,1.5,2.3s3.2-1.2,3.2-1.2l3.3-6.5
		c0,0,3.5,1.1,7.3,3.3L118.5,58.7z"/>
	<radialGradient id="XMLID_5_" cx="105.6029" cy="105.8204" r="98.1039" gradientUnits="userSpaceOnUse">
		<stop  offset="0" style="stop-color:#FFFFFF"/>
		<stop  offset="1" style="stop-color:#000000"/>
	</radialGradient>
	<circle id="XMLID_164_" class="st6" cx="105.6" cy="105.8" r="98.1"/>
	<path id="XMLID_134_" class="st5" d="M152.6,102.3H114v63.4H48.3c0,0-7.8-8.8,3.1-13.7H56v-39.6c0,0,5.3-44.7,52.1-44.7
		C126.7,67.6,148.9,81.3,152.6,102.3z"/>
	<path id="XMLID_160_" class="st7" d="M14.7,71.6c0,0,110.1,51.8,184.5,1.6c0,0-16.3-63.1-92.5-65.5C55.3,5.9,23.1,46.9,14.7,71.6z"
		/>
</g>
</svg>
