<?xml version="1.0" encoding="utf-8"?>
<!-- Generator: Adobe Illustrator 19.0.0, SVG Export Plug-In . SVG Version: 6.00 Build 0)  -->
<svg version="1.1" id="Layer_1" xmlns="http://www.w3.org/2000/svg" xmlns:xlink="http://www.w3.org/1999/xlink" x="0px" y="0px"
	 viewBox="0 0 208 212" style="enable-background:new 0 0 208 212;" xml:space="preserve">
<style type="text/css">
	.st0{fill:#9BCFE0;}
	.st1{clip-path:url(#XMLID_4_);fill:#9E1C44;}
	.st2{opacity:0.42;fill:url(#XMLID_5_);}
	.st3{fill:#00726C;}
	.st4{fill:#019FE0;}
	.st5{fill:#F9FCFD;}
	.st6{fill:#16A7E3;}
	.st7{opacity:0.28;fill:#FFFFFF;}
</style>
<g id="XMLID_283_">
	<circle id="XMLID_205_" class="st0" cx="105" cy="106" r="98.1"/>
	<g id="XMLID_263_">
		<defs>
			<rect id="XMLID_264_" x="-37.4" y="105.3" width="296.5" height="117.9"/>
		</defs>
		<clipPath id="XMLID_4_">
			<use xlink:href="#XMLID_264_"  style="overflow:visible;"/>
		</clipPath>
		<circle id="XMLID_265_" class="st1" cx="105.8" cy="105.3" r="98.1"/>
	</g>
	<radialGradient id="XMLID_5_" cx="105.0657" cy="106.004" r="98.1039" gradientUnits="userSpaceOnUse">
		<stop  offset="0" style="stop-color:#FFFFFF"/>
		<stop  offset="1" style="stop-color:#000000"/>
	</radialGradient>
	<circle id="XMLID_195_" class="st2" cx="105.1" cy="106" r="98.1"/>
	<g id="XMLID_206_">
		<path id="XMLID_299_" class="st3" d="M138.5,125.4c0,10.1,0,20.3,0,30.4c0,6.4-1.9,8.3-8.2,8.3c-16.8,0-33.6,0-50.4,0
			c-6.3,0-8.2-1.9-8.3-8.2c0-20.3,0-40.6,0-60.9c0-1.7-0.8-4.5,1.7-4.5c2.5,0,1.7,2.8,1.7,4.5c0.1,12.7,0.1,25.5,0,38.2
			c0,3.2,0.6,4.5,4.2,4.4c17.2-0.2,34.3-0.2,51.5,0c3.5,0,4.3-1,4.3-4.3c-0.2-12.7-0.1-25.5,0-38.2c0-1.7-0.8-4.5,1.6-4.6
			c2.6-0.1,1.8,2.7,1.8,4.4C138.5,105.1,138.5,115.2,138.5,125.4z"/>
		<path id="XMLID_298_" class="st3" d="M98.8,47.8c22.1-0.2,36.1,3.6,49.2,11c1.5,0.8,4.3,1.5,3.2,3.7c-1.4,2.9-3.5,0.3-5-0.5
			C118.5,47.2,91,47.5,63.6,63.2c-1.4,0.8-3.3,3-4.7,0.7c-1.4-2.3,1.4-3,2.8-3.9C73.9,52.2,89.8,47.8,98.8,47.8z"/>
		<path id="XMLID_297_" class="st3" d="M106,68.8c10.6-0.1,20,2.3,28.9,6.5c1.4,0.7,3.8,1.3,3,3.2c-1.1,2.7-3.1,0.8-4.6,0.1
			c-19.1-8.8-38.1-8.5-56.8,1.1c-1.4,0.7-3.1,2.4-4.2,0.1c-1.1-2.2,1.3-2.7,2.6-3.4C84.8,71.2,95.4,68.6,106,68.8z"/>
		<path id="XMLID_296_" class="st3" d="M106.7,89.3c4.8,0.3,9.5,0.7,14.1,2.4c1.3,0.5,3.2,0.9,2.6,2.9c-0.5,1.6-2.2,1.1-3.3,0.8
			c-10.2-3.3-20.2-3.1-30.2,0.8c-1.2,0.5-2.7,0.9-3.3-0.7c-0.8-2.1,1.2-2.4,2.4-2.9C94.6,90.2,100.6,89.3,106.7,89.3z"/>
		<path id="XMLID_295_" class="st4" d="M104.9,140.9c8.7,0,17.3,0.1,26-0.1c2.9-0.1,4.2,0.5,4.2,3.9c-0.4,18.7,2.6,15.9-15.5,16.1
			c-12.7,0.1-25.4-0.1-38.1,0.1c-4.9,0.1-6.4-1.8-6.4-6.5c0.1-13.5-0.1-13.5,13.3-13.5C93.9,140.9,99.4,140.9,104.9,140.9z"/>
		<path id="XMLID_294_" class="st5" d="M105.1,143.1c4.2,0,7.2,3.2,7.1,7.4c-0.1,4.1-3.4,7.4-7.5,7c-4.2-0.4-6.7-2.7-6.9-7.1
			C97.7,146.2,100.9,143.1,105.1,143.1z"/>
		<path id="XMLID_293_" class="st6" d="M105.1,153.9c-1.9-0.4-3.4-1.2-3.5-3.4c-0.1-2.5,1.4-3.8,3.6-3.8c2,0,3.3,1.4,3.3,3.5
			C108.5,152.4,107.1,153.4,105.1,153.9z"/>
	</g>
	<path id="XMLID_183_" class="st7" d="M12.8,71.7c0,0,110.1,51.8,184.5,1.6c0,0-16.3-63.1-92.5-65.5C53.4,6.1,21.2,47.1,12.8,71.7z"
		/>
</g>
</svg>
