<?xml version="1.0" encoding="utf-8"?>
<!-- Generator: Adobe Illustrator 19.0.0, SVG Export Plug-In . SVG Version: 6.00 Build 0)  -->
<svg version="1.1" id="Layer_1" xmlns="http://www.w3.org/2000/svg" xmlns:xlink="http://www.w3.org/1999/xlink" x="0px" y="0px"
	 viewBox="0 0 208 212" style="enable-background:new 0 0 208 212;" xml:space="preserve">
<style type="text/css">
	.st0{fill:#9BCFE0;}
	.st1{clip-path:url(#XMLID_86_);fill:#C01D32;}
	.st2{opacity:0.4;fill:url(#XMLID_87_);}
	.st3{fill:#009E99;}
	.st4{fill:#FFFFFF;}
	.st5{fill:#0D7F74;}
	.st6{fill:#00726C;}
	.st7{fill:#FFD639;}
	.st8{fill:#FFA64A;}
	.st9{opacity:0.28;fill:#FFFFFF;}
</style>
<g id="XMLID_273_">
	<circle id="XMLID_84_" class="st0" cx="104.9" cy="106.2" r="98.1"/>
	<g id="XMLID_251_">
		<defs>
			<rect id="XMLID_252_" x="-38.3" y="106.4" width="296.5" height="117.9"/>
		</defs>
		<clipPath id="XMLID_86_">
			<use xlink:href="#XMLID_252_"  style="overflow:visible;"/>
		</clipPath>
		<circle id="XMLID_253_" class="st1" cx="104.8" cy="106.4" r="98.1"/>
	</g>
	<radialGradient id="XMLID_87_" cx="104.8509" cy="107.355" r="98.1039" gradientUnits="userSpaceOnUse">
		<stop  offset="0" style="stop-color:#FFFFFF"/>
		<stop  offset="1" style="stop-color:#000000"/>
	</radialGradient>
	<circle id="XMLID_34_" class="st2" cx="104.9" cy="107.4" r="98.1"/>
	<g id="XMLID_4_">
		<g id="XMLID_19_">
			<rect id="XMLID_31_" x="30.3" y="107.2" class="st3" width="25.1" height="49"/>
			<rect id="XMLID_29_" x="47.1" y="139.8" class="st4" width="4.2" height="4.3"/>
			<rect id="XMLID_28_" x="47.1" y="148" class="st4" width="4.2" height="4.3"/>
			<rect id="XMLID_27_" x="55.4" y="107.2" class="st5" width="8.3" height="49"/>
			<path id="XMLID_26_" class="st6" d="M63.6,111.1h12.7l20.5,8.4h23.6c0,0,8.6,1.4,3.8,10.2h5.6l26.1-12.5c0,0,10.4-0.2,5.7,9.8
				L116,156.2c0,0-3.3,1.7-10.5-0.5c-7.2-2.2-35.5-11.6-35.5-11.6h-6.3V111.1z"/>
			<path id="XMLID_25_" class="st3" d="M120.1,131.5l-24.5,0.2c0,0-4.4,1-5,6C90.6,137.7,109.8,137.9,120.1,131.5z"/>
			<circle id="XMLID_24_" class="st7" cx="111.6" cy="94.6" r="14.5"/>
			<path id="XMLID_23_" class="st8" d="M103.9,74.1h-2c-0.6,0-1.1-0.5-1.1-1.1v-6.9c0-0.6,0.5-1.1,1.1-1.1h2c0.6,0,1.1,0.5,1.1,1.1
				V73C105,73.6,104.5,74.1,103.9,74.1z"/>
			<path id="XMLID_22_" class="st8" d="M112.4,61.7h-2c-0.6,0-1.1-0.5-1.1-1.1V49.6c0-0.6,0.5-1.1,1.1-1.1h2c0.6,0,1.1,0.5,1.1,1.1
				v11.1C113.5,61.2,113,61.7,112.4,61.7z"/>
			<path id="XMLID_21_" class="st8" d="M120.7,68.1h-2.4c-0.7,0-1.3-0.6-1.3-1.3V56.4c0-0.7,0.6-1.3,1.3-1.3h2.4
				c0.7,0,1.3,0.6,1.3,1.3v10.4C122,67.5,121.4,68.1,120.7,68.1z"/>
			<path id="XMLID_20_" class="st8" d="M103.9,62.8h-2c-0.6,0-1.1-0.5-1.1-1.1v-4.1c0-0.6,0.5-1.1,1.1-1.1h2c0.6,0,1.1,0.5,1.1,1.1
				v4.1C105,62.3,104.5,62.8,103.9,62.8z"/>
		</g>
		<g id="XMLID_5_">
			<path id="XMLID_18_" class="st4" d="M151.5,106.4l-2.1,0.9c-0.7,0.3-1.5,0-1.8-0.7L137.2,82c-0.3-0.7,0-1.5,0.7-1.8l2.1-0.9
				c0.7-0.3,1.5,0,1.8,0.7l10.4,24.6C152.6,105.3,152.2,106.1,151.5,106.4z"/>
			<path id="XMLID_17_" class="st4" d="M185.5,79.1l1.3,1.9c0.4,0.6,0.3,1.5-0.4,1.9l-36.3,24.6c-0.6,0.4-1.5,0.3-1.9-0.4l-1.3-1.9
				c-0.4-0.6-0.3-1.5,0.4-1.9l36.3-24.6C184.2,78.3,185.1,78.4,185.5,79.1z"/>
		</g>
	</g>
	<path id="XMLID_3_" class="st9" d="M13.1,73.1c0,0,110.1,51.8,184.5,1.6c0,0-16.3-63.1-92.5-65.5C53.7,7.5,21.4,48.4,13.1,73.1z"/>
</g>
</svg>
