<?xml version="1.0" encoding="utf-8"?>
<!-- Generator: Adobe Illustrator 19.0.0, SVG Export Plug-In . SVG Version: 6.00 Build 0)  -->
<svg version="1.1" id="Layer_1" xmlns="http://www.w3.org/2000/svg" xmlns:xlink="http://www.w3.org/1999/xlink" x="0px" y="0px"
	 viewBox="0 0 208 212" style="enable-background:new 0 0 208 212;" xml:space="preserve">
<style type="text/css">
	.st0{fill:#9BCFE0;}
	.st1{clip-path:url(#XMLID_27_);fill:#FD9B37;}
	.st2{opacity:0.57;fill:url(#XMLID_28_);}
	.st3{fill:#009E99;}
	.st4{fill:#FFFFFF;}
	.st5{fill:#0D7F74;}
	.st6{fill:#00726C;}
	.st7{fill:#FFA64A;}
	.st8{fill:#FFD639;}
	.st9{opacity:0.28;fill:#FFFFFF;}
</style>
<g id="XMLID_272_">
	<circle id="XMLID_25_" class="st0" cx="104.4" cy="104.4" r="98.1"/>
	<g id="XMLID_203_">
		<defs>
			<rect id="XMLID_207_" x="-39.1" y="107.9" width="296.5" height="117.9"/>
		</defs>
		<clipPath id="XMLID_27_">
			<use xlink:href="#XMLID_207_"  style="overflow:visible;"/>
		</clipPath>
		<circle id="XMLID_210_" class="st1" cx="104" cy="107.9" r="98.1"/>
	</g>
	
		<radialGradient id="XMLID_28_" cx="103.7367" cy="106.4748" r="99.4267" gradientTransform="matrix(0.9891 0 0 1 1.7887 0)" gradientUnits="userSpaceOnUse">
		<stop  offset="0" style="stop-color:#FFFFFF"/>
		<stop  offset="1" style="stop-color:#000000"/>
	</radialGradient>
	<ellipse id="XMLID_24_" class="st2" cx="104.4" cy="106.5" rx="98.3" ry="99.4"/>
	<g id="XMLID_17_">
		<rect id="XMLID_23_" x="43.8" y="111.2" class="st3" width="22.9" height="44.8"/>
		<rect id="XMLID_22_" x="59.1" y="140.9" class="st4" width="3.8" height="4"/>
		<rect id="XMLID_21_" x="59.1" y="148.4" class="st4" width="3.8" height="4"/>
		<rect id="XMLID_20_" x="66.7" y="111.2" class="st5" width="7.5" height="44.8"/>
		<path id="XMLID_19_" class="st6" d="M74.3,114.8h11.6l18.7,7.7h21.6c0,0,7.9,1.3,3.5,9.3h5.2l23.8-11.4c0,0,9.5-0.2,5.2,9
			l-41.7,26.7c0,0-3,1.6-9.6-0.5c-6.6-2-32.4-10.6-32.4-10.6h-5.7V114.8z"/>
		<path id="XMLID_18_" class="st3" d="M125.8,133.4l-22.4,0.2c0,0-4,0.9-4.6,5.5C98.9,139.1,116.5,139.2,125.8,133.4z"/>
	</g>
	<g id="XMLID_4_">
		<path id="XMLID_5_" class="st7" d="M94.2,44.5v3.9c0,0-3.8,2.1,0,4.5h19.3c0,0,0.9-2.9,3.9-3.9v-8.9h4.2V49c0,0,2.8,0.2,4.1,3.7
			l19.8,0.1c0,0,3.4-1.5,0-3.9v-4.3c0,0,5.7,0.6,5.7,6.6s-5.1,5.7-7.6,5.7s-17.6,0-17.6,0s-0.8,3.7-4.2,4.3v4.3h4.4V70h-4.4v25h12.5
			l3.3,8.6h9.4l0.1,8.5H92.5v-8.6l8.8-0.1l3.5-8.5l12.5,0.1l0.2-25.1h-4.3v-4.4h4.3v-4.3c0,0-2.5-0.8-3.9-4.1l-19,0.1
			c0,0-5.9,0-6.4-5.5C87.9,49.4,88.8,45.2,94.2,44.5z"/>
		<path id="XMLID_119_" class="st8" d="M109.1,74c-2.2-5.5-6.9-16.8-6.9-16.8h-7.1l-7.4,17.1c0,0,0.3,12.7,10.9,12.3
			C104.9,86.6,109.9,80.8,109.1,74z M92.7,74l5.7-13.3l6,13.3H92.7z"/>
		<path id="XMLID_120_" class="st8" d="M151.3,73.8c-2-4.5-7.1-16.9-7.1-16.9h-6.4L130.1,74c0,0-0.8,12.3,10.9,12.6
			C147.6,86.6,152.4,78.9,151.3,73.8z M134.9,74l5.9-13.3l5.7,13.3H134.9z"/>
	</g>
	<path id="XMLID_3_" class="st9" d="M11.8,71.7c0,0,110.3,52.5,184.9,1.7c0,0-16.3-64-92.8-66.4C52.5,5.3,20.2,46.7,11.8,71.7z"/>
</g>
</svg>
