<svg xmlns="http://www.w3.org/2000/svg" xmlns:xlink="http://www.w3.org/1999/xlink" version="1.1" x="0px" y="0px" viewBox="0 0 25 31.25" enable-background="new 0 0 25 25" xml:space="preserve"><g><g><path d="M17.354,2.646C17.26,2.553,17.133,2.5,17,2.5H7C5.622,2.5,4.5,3.621,4.5,5v15c0,1.379,1.122,2.5,2.5,2.5h5V15h-0.5    C10.122,15,9,13.879,9,12.5v-2C9,10.224,9.224,10,9.5,10H10V6.5C10,6.224,10.224,6,10.5,6S11,6.224,11,6.5V10h3V6.5    C14,6.224,14.224,6,14.5,6S15,6.224,15,6.5V10h0.5c0.276,0,0.5,0.224,0.5,0.5v2c0,1.379-1.122,2.5-2.5,2.5H13v7.5h5    c1.378,0,2.5-1.121,2.5-2.5V6c0-0.133-0.053-0.26-0.146-0.354L17.354,2.646z"/><path d="M15,12.5V11h-5v1.5c0,0.827,0.673,1.5,1.5,1.5h2C14.327,14,15,13.327,15,12.5z"/></g></g><text x="0" y="40" fill="#000000" font-size="5px" font-weight="bold" font-family="'Helvetica Neue', Helvetica, Arial-Unicode, Arial, Sans-serif">Created by Ralf Schmitzer</text><text x="0" y="45" fill="#000000" font-size="5px" font-weight="bold" font-family="'Helvetica Neue', Helvetica, Arial-Unicode, Arial, Sans-serif">from the Noun Project</text></svg>