<!-- Generated by IcoMoon.io -->
<svg version="1.1" xmlns="http://www.w3.org/2000/svg" width="32" height="32" viewBox="0 0 32 32">
<title>financial_report</title>
<path d="M24.842 6.107l-4.612-2.103c-0.067-0.030-0.174-0.030-0.24 0l-4.611 2.103c-0.067 0.030-0.12 0.113-0.12 0.185v0.963h0.917v4.331c0 0.073 0.059 0.131 0.131 0.131h1.311c0.073 0 0.131-0.059 0.131-0.131v-4.331h1.573v4.331c0 0.073 0.059 0.131 0.131 0.131h1.311c0.072 0 0.131-0.059 0.131-0.131v-4.331h1.573v4.331c0 0.073 0.058 0.131 0.131 0.131h1.311c0.073 0 0.131-0.059 0.131-0.131v-4.331h0.917v-0.963c0-0.072-0.053-0.155-0.12-0.185z"></path>
<path d="M23.826 13.506h-7.43c-0.364 0-0.659-0.295-0.659-0.659v0c0-0.363 0.295-0.659 0.659-0.659h7.428c0.364 0 0.66 0.295 0.66 0.659v0c0 0.365-0.295 0.659-0.658 0.659z"></path>
<path d="M19.155 18.455h-10.649c-0.401 0-0.726-0.324-0.726-0.725v0c0-0.4 0.325-0.725 0.726-0.725h10.649c0.401 0 0.726 0.325 0.726 0.725v0c-0.001 0.4-0.325 0.725-0.726 0.725z"></path>
<path d="M24.103 18.455h-1.637c-0.401 0-0.726-0.324-0.726-0.725v0c0-0.4 0.325-0.725 0.726-0.725h1.637c0.401 0 0.726 0.325 0.726 0.725v0c-0.001 0.4-0.325 0.725-0.725 0.725z"></path>
<path d="M19.155 22.051h-10.649c-0.401 0-0.726-0.324-0.726-0.725v0c0-0.4 0.325-0.725 0.726-0.725h10.649c0.401 0 0.726 0.325 0.726 0.725v0c-0.001 0.4-0.325 0.725-0.726 0.725z"></path>
<path d="M24.103 22.051h-1.637c-0.401 0-0.726-0.324-0.726-0.725v0c0-0.4 0.325-0.725 0.726-0.725h1.637c0.401 0 0.726 0.325 0.726 0.725v0c-0.001 0.4-0.325 0.725-0.725 0.725z"></path>
<path d="M19.155 25.646h-10.649c-0.401 0-0.726-0.324-0.726-0.725v0c0-0.4 0.325-0.725 0.726-0.725h10.649c0.401 0 0.726 0.325 0.726 0.725v0c-0.001 0.4-0.325 0.725-0.726 0.725z"></path>
<path d="M24.103 25.646h-1.637c-0.401 0-0.726-0.324-0.726-0.725v0c0-0.4 0.325-0.725 0.726-0.725h1.637c0.401 0 0.726 0.325 0.726 0.725v0c-0.001 0.4-0.325 0.725-0.725 0.725z"></path>
<path d="M28.153 30.888h-23.897v-30.096h23.898v30.096zM5.589 29.555h21.231v-27.429h-21.231v27.429z"></path>
</svg>
