<svg xmlns="http://www.w3.org/2000/svg" xmlns:xlink="http://www.w3.org/1999/xlink" version="1.1" x="0px" y="0px" viewBox="0 0 1000 1250" style="enable-background:new 0 0 1000 1000;" xml:space="preserve"><g><path d="M684.1,97.8H315.9c-28.7,0-51.9,23.2-51.9,51.9v700.5c0,28.7,23.2,51.9,51.9,51.9h368.2c28.7,0,51.9-23.2,51.9-51.9V149.8   C736,121.1,712.8,97.8,684.1,97.8z M442.9,144h114.3v5.7H442.9V144z M529.3,833.6c0,16.1-13.2,29.3-29.3,29.3   c-16.1,0-29.3-13.2-29.3-29.3v0c0-16.1,13.2-29.3,29.3-29.3C516.1,804.2,529.3,817.4,529.3,833.6L529.3,833.6z M695.8,782.2H304.2   V187.6h391.6V782.2z"/></g><text x="0" y="1015" fill="#000000" font-size="5px" font-weight="bold" font-family="'Helvetica Neue', Helvetica, Arial-Unicode, Arial, Sans-serif">Created by Jose Luis Tawil</text><text x="0" y="1020" fill="#000000" font-size="5px" font-weight="bold" font-family="'Helvetica Neue', Helvetica, Arial-Unicode, Arial, Sans-serif">from the Noun Project</text></svg>