<svg xmlns="http://www.w3.org/2000/svg" xmlns:xlink="http://www.w3.org/1999/xlink" version="1.1" x="0px" y="0px" viewBox="0 0 64 80" style="enable-background:new 0 0 64 64;" xml:space="preserve"><path d="M59.122,7c-0.552,0-1,0.448-1,1s0.448,1,1,1c0.601,0,0.916,0.505,0.916,1.005v48.99c0,0.463-0.217,1.005-0.827,1.005h-23.18  c-0.552,0-1,0.448-1,1s0.448,1,1,1h23.18c1.611,0,2.827-1.292,2.827-3.005v-48.99C62.038,8.32,60.757,7,59.122,7z"/><path d="M23.028,22c0.552,0,1-0.448,1-1V10.005C24.028,9.451,24.479,9,25.033,9c0.552,0,1-0.448,1-1s-0.448-1-1-1  c-1.657,0-3.005,1.348-3.005,3.005V21C22.028,21.552,22.476,22,23.028,22z"/><path d="M29.029,15h26.007c0.552,0,1-0.448,1-1V7c0-2.757-2.243-5-5-5H33.03c-2.757,0-5,2.243-5,5v7  C28.029,14.552,28.477,15,29.029,15z M30.029,7c0-1.654,1.346-3,3-3h18.006c1.654,0,3,1.346,3,3v6H30.029V7z"/><path d="M42.448,5.17c-1.883,0-3.416,1.532-3.416,3.415S40.564,12,42.448,12c1.884,0,3.416-1.532,3.416-3.415  S44.332,5.17,42.448,5.17z M42.448,10c-0.78,0-1.416-0.635-1.416-1.415s0.635-1.415,1.416-1.415c0.781,0,1.416,0.635,1.416,1.415  S43.229,10,42.448,10z"/><path d="M29.029,22h19.005c0.552,0,1-0.448,1-1s-0.448-1-1-1H29.029c-0.552,0-1,0.448-1,1S28.477,22,29.029,22z"/><path d="M55.036,20h-3c-0.552,0-1,0.448-1,1s0.448,1,1,1h3c0.552,0,1-0.448,1-1S55.588,20,55.036,20z"/><path d="M55.036,26H44.033c-0.552,0-1,0.448-1,1s0.448,1,1,1h11.003c0.552,0,1-0.448,1-1S55.588,26,55.036,26z"/><path d="M37.032,28h3c0.552,0,1-0.448,1-1s-0.448-1-1-1h-3c-0.552,0-1,0.448-1,1S36.479,28,37.032,28z"/><path d="M37.032,34h11.003c0.552,0,1-0.448,1-1s-0.448-1-1-1H37.032c-0.552,0-1,0.448-1,1S36.479,34,37.032,34z"/><path d="M55.036,32h-3c-0.552,0-1,0.448-1,1s0.448,1,1,1h3c0.552,0,1-0.448,1-1S55.588,32,55.036,32z"/><path d="M55.036,38H44.033c-0.552,0-1,0.448-1,1s0.448,1,1,1h11.003c0.552,0,1-0.448,1-1S55.588,38,55.036,38z"/><path d="M37.032,40h3c0.552,0,1-0.448,1-1s-0.448-1-1-1h-3c-0.552,0-1,0.448-1,1S36.479,40,37.032,40z"/><path d="M49.035,45c0-0.552-0.448-1-1-1H37.032c-0.552,0-1,0.448-1,1s0.448,1,1,1h11.003C48.587,46,49.035,45.552,49.035,45z"/><path d="M55.036,44h-3c-0.552,0-1,0.448-1,1s0.448,1,1,1h3c0.552,0,1-0.448,1-1S55.588,44,55.036,44z"/><path d="M44.033,52h11.003c0.552,0,1-0.448,1-1s-0.448-1-1-1H44.033c-0.552,0-1,0.448-1,1S43.481,52,44.033,52z"/><path d="M37.032,50c-0.552,0-1,0.448-1,1s0.448,1,1,1h3c0.552,0,1-0.448,1-1s-0.448-1-1-1H37.032z"/><path d="M7.023,62H29.03c2.757,0,5-2.243,5-5V29c0-2.757-2.243-5-5-5H7.023c-2.757,0-5,2.243-5,5V57C2.022,59.757,4.266,62,7.023,62  z M4.022,29c0-1.654,1.346-3,3-3H29.03c1.654,0,3,1.346,3,3V57c0,1.654-1.346,3-3,3H7.023c-1.654,0-3-1.346-3-3V29z"/><path d="M10.024,38h16.005c1.655,0,3-1.346,3-3V32c0-1.655-1.346-3-3-3H10.024c-1.654,0-3,1.346-3,3V35  C7.024,36.654,8.37,38,10.024,38z M9.024,32c0-0.552,0.449-1,1-1h16.005c0.552,0,1,0.449,1,1V35c0,0.552-0.449,1-1,1H10.024  c-0.551,0-1-0.449-1-1V32z"/><path d="M28.029,42h-2.001c-0.552,0-1,0.448-1,1s0.448,1,1,1h2.001c0.552,0,1-0.448,1-1S28.582,42,28.029,42z"/><path d="M28.029,48h-2.001c-0.552,0-1,0.448-1,1s0.448,1,1,1h2.001c0.552,0,1-0.448,1-1S28.582,48,28.029,48z"/><path d="M28.029,54h-2.001c-0.552,0-1,0.448-1,1s0.448,1,1,1h2.001c0.552,0,1-0.448,1-1S28.582,54,28.029,54z"/><path d="M22.027,42h-2c-0.552,0-1,0.448-1,1s0.448,1,1,1h2c0.552,0,1-0.448,1-1S22.58,42,22.027,42z"/><path d="M16.026,42h-2c-0.552,0-1,0.448-1,1s0.448,1,1,1h2c0.552,0,1-0.448,1-1S16.578,42,16.026,42z"/><path d="M8.024,44h2c0.552,0,1-0.448,1-1s-0.448-1-1-1h-2c-0.552,0-1,0.448-1,1S7.472,44,8.024,44z"/><path d="M22.027,48h-2c-0.552,0-1,0.448-1,1s0.448,1,1,1h2c0.552,0,1-0.448,1-1S22.58,48,22.027,48z"/><path d="M16.026,48h-2c-0.552,0-1,0.448-1,1s0.448,1,1,1h2c0.552,0,1-0.448,1-1S16.578,48,16.026,48z"/><path d="M8.024,50h2c0.552,0,1-0.448,1-1s-0.448-1-1-1h-2c-0.552,0-1,0.448-1,1S7.472,50,8.024,50z"/><path d="M22.027,54h-2c-0.552,0-1,0.448-1,1s0.448,1,1,1h2c0.552,0,1-0.448,1-1S22.58,54,22.027,54z"/><path d="M16.026,54h-2c-0.552,0-1,0.448-1,1s0.448,1,1,1h2c0.552,0,1-0.448,1-1S16.578,54,16.026,54z"/><path d="M8.024,56h2c0.552,0,1-0.448,1-1s-0.448-1-1-1h-2c-0.552,0-1,0.448-1,1S7.472,56,8.024,56z"/><path d="M4.022,9h2.001v2c0,0.552,0.448,1,1,1s1-0.448,1-1V9h2.001c0.552,0,1-0.448,1-1s-0.448-1-1-1H8.023V5c0-0.552-0.448-1-1-1  s-1,0.448-1,1v2H4.022c-0.552,0-1,0.448-1,1S3.47,9,4.022,9z"/><path d="M12.317,19.707C12.513,19.902,12.769,20,13.025,20s0.512-0.098,0.707-0.292l1.294-1.293l1.294,1.293  C16.515,19.902,16.771,20,17.026,20s0.512-0.098,0.708-0.293c0.39-0.391,0.39-1.024,0-1.415L16.44,17l1.293-1.292  c0.391-0.391,0.391-1.024,0-1.415c-0.391-0.391-1.024-0.39-1.415,0l-1.294,1.293l-1.294-1.293c-0.391-0.39-1.024-0.39-1.415,0  c-0.39,0.391-0.39,1.024,0,1.415L13.611,17l-1.293,1.292C11.927,18.683,11.927,19.316,12.317,19.707z"/><text x="0" y="79" fill="#000000" font-size="5px" font-weight="bold" font-family="'Helvetica Neue', Helvetica, Arial-Unicode, Arial, Sans-serif">Created by LINECTOR </text><text x="0" y="84" fill="#000000" font-size="5px" font-weight="bold" font-family="'Helvetica Neue', Helvetica, Arial-Unicode, Arial, Sans-serif">from the Noun Project</text></svg>