<svg xmlns="http://www.w3.org/2000/svg" xmlns:xlink="http://www.w3.org/1999/xlink" version="1.1" x="0px" y="0px" viewBox="0 0 48 48" enable-background="new 0 0 48 48" xml:space="preserve"><path d="M37.263,9.16l-6.918-3.154c-0.1-0.045-0.261-0.045-0.36,0L23.069,9.16c-0.1,0.045-0.18,0.17-0.18,0.278v1.445h1.376v6.497  c0,0.109,0.089,0.197,0.197,0.197h1.967c0.109,0,0.197-0.088,0.197-0.197v-6.497h2.36v6.497c0,0.109,0.088,0.197,0.197,0.197h1.967  c0.108,0,0.197-0.088,0.197-0.197v-6.497h2.36v6.497c0,0.109,0.087,0.197,0.196,0.197h1.967c0.109,0,0.197-0.088,0.197-0.197v-6.497  h0.196h1.18V9.438C37.443,9.33,37.363,9.205,37.263,9.16z"></path><path d="M35.739,20.259H24.594c-0.546,0-0.989-0.442-0.989-0.989l0,0c0-0.545,0.442-0.988,0.989-0.988h11.142  c0.546,0,0.99,0.443,0.99,0.988l0,0C36.726,19.817,36.284,20.259,35.739,20.259z"></path><path d="M28.733,27.683H12.76c-0.602,0-1.089-0.486-1.089-1.087l0,0c0-0.6,0.487-1.087,1.089-1.087h15.973  c0.601,0,1.089,0.488,1.089,1.087l0,0C29.821,27.196,29.334,27.683,28.733,27.683z"></path><path d="M36.154,27.683h-2.456c-0.602,0-1.089-0.486-1.089-1.087l0,0c0-0.6,0.487-1.087,1.089-1.087h2.455  c0.601,0,1.089,0.488,1.089,1.087l0,0C37.241,27.196,36.755,27.683,36.154,27.683z"></path><path d="M28.733,33.076H12.76c-0.602,0-1.089-0.486-1.089-1.087l0,0c0-0.6,0.487-1.087,1.089-1.087h15.973  c0.601,0,1.089,0.488,1.089,1.087l0,0C29.821,32.589,29.334,33.076,28.733,33.076z"></path><path d="M36.154,33.076h-2.456c-0.602,0-1.089-0.486-1.089-1.087l0,0c0-0.6,0.487-1.087,1.089-1.087h2.455  c0.601,0,1.089,0.488,1.089,1.087l0,0C37.241,32.589,36.755,33.076,36.154,33.076z"></path><path d="M28.733,38.469H12.76c-0.602,0-1.089-0.486-1.089-1.087l0,0c0-0.6,0.487-1.087,1.089-1.087h15.973  c0.601,0,1.089,0.488,1.089,1.087l0,0C29.821,37.982,29.334,38.469,28.733,38.469z"></path><path d="M36.154,38.469h-2.456c-0.602,0-1.089-0.486-1.089-1.087l0,0c0-0.6,0.487-1.087,1.089-1.087h2.455  c0.601,0,1.089,0.488,1.089,1.087l0,0C37.241,37.982,36.755,38.469,36.154,38.469z"></path><g><path d="M42.229,46.332H6.383V1.188h35.847V46.332z M8.383,44.332h31.847V3.188H8.383V44.332z"></path></g></svg>