<?xml version="1.0" encoding="iso-8859-1"?>
<!-- Generator: Adobe Illustrator 19.0.0, SVG Export Plug-In . SVG Version: 6.00 Build 0)  -->
<svg version="1.1" id="Capa_1" xmlns="http://www.w3.org/2000/svg" xmlns:xlink="http://www.w3.org/1999/xlink" x="0px" y="0px"
	 viewBox="0 0 512 512" style="enable-background:new 0 0 512 512;" xml:space="preserve">
<rect x="102.4" y="8.533" style="fill:#51ABD8;" width="307.2" height="494.933"/>
<rect x="102.4" y="435.2" style="fill:#F5F1EF;" width="307.2" height="68.267"/>
<path style="opacity:0.3;fill:#1588C9;enable-background:new    ;" d="M360.013,76.8c0.324,159.343-104.67,299.733-257.613,344.448
	V435.2h307.2V76.8H360.013z"/>
<g>
	<rect x="102.4" y="8.533" style="fill:#F5F1EF;" width="307.2" height="68.267"/>
	<path style="fill:#F5F1EF;" d="M256,375.467h-8.533l-17.067,25.6l-17.067-25.6H51.2c-23.561,0-42.667-19.106-42.667-42.667v-85.333
		c0-23.561,19.106-42.667,42.667-42.667H256c23.561,0,42.667,19.106,42.667,42.667V332.8
		C298.667,356.361,279.561,375.467,256,375.467z"/>
</g>
<path style="fill:#DEDAD8;" d="M256,204.8h-23.962c1.613,8.439,2.423,17.007,2.432,25.6c0,63.514-43.733,118.468-107.392,145.067
	h86.255l17.067,25.6l17.067-25.6H256c23.561,0,42.667-19.106,42.667-42.667v-85.333C298.667,223.906,279.561,204.8,256,204.8z"/>
<path style="fill:#FFC117;" d="M460.8,298.667H358.4l-17.067,25.6l-17.067-25.6H256c-23.561,0-42.667-19.106-42.667-42.667v-85.333
	C213.333,147.106,232.439,128,256,128h204.8c23.561,0,42.667,19.106,42.667,42.667V256
	C503.467,279.561,484.361,298.667,460.8,298.667z"/>
<path style="opacity:0.3;fill:#E97424;enable-background:new    ;" d="M460.8,128h-35.209c0.708,5.658,1.067,11.358,1.075,17.067
	c0,71.39-55.245,131.959-131.934,153.6h29.534l17.067,25.6l17.067-25.6h102.4c23.561,0,42.667-19.106,42.667-42.667v-85.333
	C503.467,147.106,484.361,128,460.8,128z"/>
<path d="M443.733,171.904v-9.771h-17.067v9.771c-12.8,3.985-19.942,17.587-15.966,30.379c1.971,6.323,6.434,11.571,12.365,14.524
	l16.631,8.32c3.601,1.801,5.06,6.178,3.26,9.779c-1.229,2.466-3.755,4.028-6.511,4.028h-2.492c-4.019-0.009-7.279-3.268-7.287-7.287
	V230.4H409.6v1.246c0.043,10.607,6.946,19.959,17.067,23.117v9.771h17.067v-9.771c12.8-3.985,19.942-17.587,15.966-30.379
	c-1.971-6.323-6.434-11.571-12.365-14.524l-16.632-8.32c-3.601-1.801-5.06-6.178-3.26-9.779c1.229-2.466,3.755-4.028,6.511-4.028
	h2.492c4.019,0.009,7.279,3.268,7.287,7.287v1.246H460.8v-1.246C460.757,184.414,453.854,175.061,443.733,171.904z"/>
<path d="M460.8,119.467h-42.667V8.533c0-4.71-3.823-8.533-8.533-8.533H102.4c-4.71,0-8.533,3.823-8.533,8.533v187.733H51.2
	c-28.262,0.026-51.174,22.938-51.2,51.2V332.8c0.026,28.262,22.938,51.174,51.2,51.2h42.667v119.467c0,4.71,3.823,8.533,8.533,8.533
	h307.2c4.71,0,8.533-3.823,8.533-8.533V307.2H460.8c28.262-0.026,51.174-22.938,51.2-51.2v-85.333
	C511.974,142.404,489.062,119.492,460.8,119.467z M401.067,17.067v51.2H110.933v-51.2H401.067z M110.933,85.333h290.133v34.133H256
	c-28.262,0.026-51.174,22.938-51.2,51.2v25.6h-93.867V85.333z M17.067,332.8v-85.333c0-18.85,15.283-34.133,34.133-34.133h153.6V256
	c0.026,28.262,22.938,51.174,51.2,51.2h34.133v25.6c0,18.85-15.283,34.133-34.133,34.133h-8.533c-2.85,0-5.513,1.425-7.1,3.797
	l-9.967,14.976l-9.967-14.95c-1.579-2.381-4.241-3.814-7.1-3.823H51.2C32.35,366.933,17.067,351.65,17.067,332.8z M110.933,494.933
	v-51.2h290.133v51.2H110.933z M401.067,426.667H110.933V384h97.835l14.507,21.803c2.611,3.917,7.91,4.983,11.836,2.364
	c0.939-0.623,1.741-1.425,2.364-2.364L252.032,384H256c28.262-0.026,51.174-22.938,51.2-51.2v-25.6h12.501l14.507,21.803
	c2.611,3.925,7.91,4.983,11.836,2.364c0.939-0.623,1.741-1.425,2.364-2.364l14.558-21.803h38.101V426.667z M494.933,256
	c0,18.85-15.283,34.133-34.133,34.133H358.4c-2.85,0-5.513,1.425-7.1,3.797l-9.967,14.976l-9.967-14.95
	c-1.579-2.381-4.241-3.814-7.1-3.823H256c-18.85,0-34.133-15.283-34.133-34.133v-85.333c0-18.85,15.283-34.133,34.133-34.133h204.8
	c18.85,0,34.133,15.283,34.133,34.133V256z"/>
<rect x="162.133" y="247.467" width="17.067" height="17.067"/>
<rect x="162.133" y="281.6" width="17.067" height="17.067"/>
<rect x="162.133" y="315.733" width="17.067" height="17.067"/>
<rect x="256" y="204.8" width="93.867" height="17.067"/>
<rect x="256" y="238.933" width="93.867" height="17.067"/>
<rect x="256" y="170.667" width="59.733" height="17.067"/>
<rect x="247.467" y="460.8" width="17.067" height="17.067"/>
<rect x="230.4" y="34.133" width="17.067" height="17.067"/>
<rect x="264.533" y="34.133" width="17.067" height="17.067"/>
<path d="M116.053,258.833l6.827-15.633c-23.868-10.411-51.746-1.229-64.751,21.333H42.667V281.6h9.301
	c-1.024,5.641-1.024,11.426,0,17.067h-9.301v17.067h15.462c13.005,22.562,40.883,31.744,64.751,21.333l-6.827-15.633
	c-12.083,5.282-26.138,3.063-35.994-5.7h22.34v-17.067H69.478c-1.613-5.572-1.613-11.494,0-17.067H102.4v-17.067H80.06
	C89.916,255.77,103.97,253.551,116.053,258.833z"/>
<g>
</g>
<g>
</g>
<g>
</g>
<g>
</g>
<g>
</g>
<g>
</g>
<g>
</g>
<g>
</g>
<g>
</g>
<g>
</g>
<g>
</g>
<g>
</g>
<g>
</g>
<g>
</g>
<g>
</g>
</svg>
