<?xml version="1.0" encoding="iso-8859-1"?>
<!-- Generator: Adobe Illustrator 21.0.0, SVG Export Plug-In . SVG Version: 6.00 Build 0)  -->
<svg version="1.1" id="Capa_1" xmlns="http://www.w3.org/2000/svg" xmlns:xlink="http://www.w3.org/1999/xlink" x="0px" y="0px"
	 viewBox="0 0 609.677 609.677" style="enable-background:new 0 0 609.677 609.677;" xml:space="preserve">
<g>
	<g>
		<g id="filled_outline_2_">
			<polygon style="fill:#87CED9;" points="599.516,538.548 233.71,538.548 233.71,10.161 497.903,10.161 599.516,111.774 			"/>
			<polygon style="fill:#B9E6ED;" points="497.903,10.161 497.903,111.774 599.516,111.774 			"/>
			<path style="fill:#5EB3D1;" d="M284.516,162.581h121.935c5.609,0,10.161-4.552,10.161-10.161V81.29
				c0-4.38-2.794-8.261-6.95-9.643l-60.968-20.323c-2.083-0.691-4.339-0.691-6.422,0l-60.968,20.323
				c-4.156,1.382-6.95,5.264-6.95,9.643v71.129C274.355,158.028,278.907,162.581,284.516,162.581z M294.677,111.774H315v30.484
				h-20.323V111.774z M355.645,111.774v30.484h-20.323v-30.484H355.645z M375.968,142.258v-30.484h20.323v30.484H375.968z
				 M294.677,88.617l50.806-16.939l50.806,16.939v2.835H294.677V88.617z"/>
			<path style="fill:#5EB3D1;" d="M548.71,203.226H284.516c-5.609,0-10.161,4.552-10.161,10.161v284.516
				c0,5.609,4.552,10.161,10.161,10.161H548.71c5.609,0,10.161-4.552,10.161-10.161V213.387
				C558.871,207.778,554.319,203.226,548.71,203.226z M538.548,223.548v20.323h-71.129v-20.323H538.548z M447.097,304.839v20.323
				H294.677v-20.323H447.097z M294.677,284.516v-20.323h152.419v20.323H294.677z M447.097,345.484v20.323H294.677v-20.323H447.097z
				 M447.097,386.129v20.323H294.677v-20.323H447.097z M447.097,426.774v20.323H294.677v-20.323H447.097z M467.419,426.774h71.129
				v20.323h-71.129V426.774z M467.419,406.452v-20.323h71.129v20.323H467.419z M467.419,365.806v-20.323h71.129v20.323H467.419z
				 M467.419,325.161v-20.323h71.129v20.323H467.419z M467.419,284.516v-20.323h71.129v20.323H467.419z M447.097,223.548v20.323
				H294.677v-20.323H447.097z M294.677,467.419h152.419v20.323H294.677V467.419z M467.419,487.742v-20.323h71.129v20.323H467.419z"
				/>
			<rect x="436.935" y="142.258" style="fill:#5EB3D1;" width="111.774" height="20.323"/>
			<rect x="436.935" y="101.613" style="fill:#5EB3D1;" width="30.484" height="20.323"/>
			<path style="fill:#4398D1;" d="M10.161,558.871V375.968c0-22.446,18.199-40.645,40.645-40.645h325.161
				c22.446,0,40.645,18.199,40.645,40.645v182.903c0,22.446-18.199,40.645-40.645,40.645H50.806
				C28.36,599.516,10.161,581.317,10.161,558.871z"/>
			<path style="fill:#3E8CC7;" d="M375.968,335.323L111.774,599.516h264.194c22.446,0,40.645-18.199,40.645-40.645V375.968
				C416.613,353.521,398.414,335.323,375.968,335.323z"/>
			<rect x="50.806" y="375.968" style="fill:#FFA230;" width="60.968" height="60.968"/>
			<rect x="50.806" y="467.419" style="fill:#5EB3D1;" width="40.645" height="20.323"/>
			<rect x="50.806" y="508.065" style="fill:#5EB3D1;" width="40.645" height="20.323"/>
			<rect x="233.71" y="508.065" style="fill:#5EB3D1;" width="40.645" height="20.323"/>
			<rect x="111.774" y="467.419" style="fill:#5EB3D1;" width="40.645" height="20.323"/>
			<rect x="172.742" y="467.419" style="fill:#5EB3D1;" width="40.645" height="20.323"/>
			<rect x="233.71" y="467.419" style="fill:#5EB3D1;" width="40.645" height="20.323"/>
			<rect x="294.677" y="467.419" style="fill:#5EB3D1;" width="40.645" height="20.323"/>
			<rect x="355.645" y="375.968" style="fill:#5EB3D1;" width="20.323" height="20.323"/>
			<rect x="315" y="375.968" style="fill:#5EB3D1;" width="20.323" height="20.323"/>
			<rect x="274.355" y="375.968" style="fill:#5EB3D1;" width="20.323" height="20.323"/>
			<rect x="233.71" y="375.968" style="fill:#5EB3D1;" width="20.323" height="20.323"/>
			<rect x="304.839" y="518.226" style="fill:#87CED9;" width="71.129" height="40.645"/>
			<path style="fill:#5EB3D1;" d="M436.935,375.968c0-22.446-18.199-40.645-40.645-40.645h-20.323
				c22.446,0,40.645,18.199,40.645,40.645v162.581h20.323V375.968z"/>
			<path d="M609.555,111.154c-0.061-0.904-0.234-1.788-0.528-2.642c-0.112-0.325-0.193-0.63-0.335-0.945
				c-0.498-1.108-1.179-2.114-2.032-2.977L505.047,2.977c-0.864-0.854-1.859-1.534-2.967-2.032c-0.325-0.142-0.64-0.224-0.965-0.335
				c-0.843-0.295-1.717-0.467-2.601-0.518C498.33,0.112,498.127,0,497.903,0H233.71c-5.609,0-10.161,4.552-10.161,10.161v294.677
				h20.323V20.323h243.871v91.452c0,5.609,4.552,10.161,10.161,10.161h91.452v406.452H447.097v20.323h152.419
				c5.609,0,10.161-4.552,10.161-10.161V111.774C609.677,111.561,609.566,111.368,609.555,111.154z M508.065,101.613V34.691
				l66.922,66.922H508.065z"/>
			<path d="M284.516,162.581h121.935c5.609,0,10.161-4.552,10.161-10.161V81.29c0-4.38-2.794-8.261-6.95-9.643l-60.968-20.323
				c-2.083-0.691-4.339-0.691-6.422,0l-60.968,20.323c-4.156,1.382-6.95,5.264-6.95,9.643v71.129
				C274.355,158.028,278.907,162.581,284.516,162.581z M294.677,111.774H315v30.484h-20.323V111.774z M355.645,111.774v30.484
				h-20.323v-30.484H355.645z M375.968,142.258v-30.484h20.323v30.484H375.968z M294.677,88.617l50.806-16.939l50.806,16.939v2.835
				H294.677V88.617z"/>
			<path d="M274.355,304.839h172.742v203.226H548.71c5.609,0,10.161-4.552,10.161-10.161V213.387
				c0-5.609-4.552-10.161-10.161-10.161H284.516c-5.609,0-10.161,4.552-10.161,10.161V304.839z M294.677,284.516v-20.323h152.419
				v20.323H294.677z M467.419,264.194h71.129v20.323h-71.129V264.194z M538.548,304.839v20.323h-71.129v-20.323H538.548z
				 M467.419,426.774h71.129v20.323h-71.129V426.774z M467.419,406.452v-20.323h71.129v20.323H467.419z M467.419,365.806v-20.323
				h71.129v20.323H467.419z M467.419,487.742v-20.323h71.129v20.323H467.419z M538.548,223.548v20.323h-71.129v-20.323H538.548z
				 M447.097,223.548v20.323H294.677v-20.323H447.097z"/>
			<rect x="436.935" y="142.258" width="111.774" height="20.323"/>
			<rect x="436.935" y="101.613" width="30.484" height="20.323"/>
			<path d="M50.806,609.677h325.161c28.045-0.03,50.776-22.761,50.806-50.806V375.968c-0.03-28.045-22.761-50.776-50.806-50.806
				H50.806C22.761,325.192,0.03,347.923,0,375.968v182.903C0.03,586.916,22.761,609.647,50.806,609.677z M20.323,375.968
				c0-16.837,13.647-30.484,30.484-30.484h325.161c16.837,0,30.484,13.647,30.484,30.484v182.903
				c0,16.837-13.647,30.484-30.484,30.484H50.806c-16.837,0-30.484-13.647-30.484-30.484V375.968z"/>
			<path d="M50.806,447.097h60.968c5.609,0,10.161-4.552,10.161-10.161v-60.968c0-5.609-4.552-10.161-10.161-10.161H50.806
				c-5.609,0-10.161,4.552-10.161,10.161v60.968C40.645,442.544,45.197,447.097,50.806,447.097z M60.968,386.129h40.645v40.645
				H60.968V386.129z"/>
			<rect x="50.806" y="467.419" width="40.645" height="20.323"/>
			<rect x="50.806" y="508.065" width="40.645" height="20.323"/>
			<rect x="233.71" y="508.065" width="40.645" height="20.323"/>
			<rect x="111.774" y="467.419" width="40.645" height="20.323"/>
			<rect x="172.742" y="467.419" width="40.645" height="20.323"/>
			<rect x="233.71" y="467.419" width="40.645" height="20.323"/>
			<rect x="294.677" y="467.419" width="40.645" height="20.323"/>
			<rect x="355.645" y="375.968" width="20.323" height="20.323"/>
			<rect x="315" y="375.968" width="20.323" height="20.323"/>
			<rect x="274.355" y="375.968" width="20.323" height="20.323"/>
			<rect x="233.71" y="375.968" width="20.323" height="20.323"/>
			<path d="M304.839,508.065c-5.609,0-10.161,4.552-10.161,10.161v40.645c0,5.609,4.552,10.161,10.161,10.161h71.129
				c5.609,0,10.161-4.552,10.161-10.161v-40.645c0-5.609-4.552-10.161-10.161-10.161H304.839z M365.806,548.71H315v-20.323h50.806
				V548.71z"/>
		</g>
	</g>
</g>
<g>
</g>
<g>
</g>
<g>
</g>
<g>
</g>
<g>
</g>
<g>
</g>
<g>
</g>
<g>
</g>
<g>
</g>
<g>
</g>
<g>
</g>
<g>
</g>
<g>
</g>
<g>
</g>
<g>
</g>
</svg>
