<svg height="512pt" viewBox="-69 0 512 512.00099" width="512pt" xmlns="http://www.w3.org/2000/svg" xmlns:xlink="http://www.w3.org/1999/xlink"><linearGradient id="a" gradientTransform="matrix(.994161 0 0 -.994161 -68.553877 519.084194)" gradientUnits="userSpaceOnUse" x1="74.8449" x2="485.2083" y1="445.1719" y2="34.8085"><stop offset="0" stop-color="#662d91"/><stop offset=".437" stop-color="#3873b3"/><stop offset="1" stop-color="#00c9dd"/></linearGradient><path d="m157.308594 483.855469-32.496094 12.1875c-3.324219 1.246093-5.527344 4.421875-5.527344 7.972656v7.199219h11.210938l.300781.785156 2.121094-.785156h3.40625v-1.285156l26.96875-10.113282c17.785156-6.617187 33.152343-18.464844 44.074219-33.988281l18.25-22.773437h140.753906c4.707031 0 8.519531-3.8125 8.519531-8.519532v-426.015625c0-4.703125-3.8125-8.519531-8.519531-8.519531h-230.046875c-4.703125 0-8.519531 3.816406-8.519531 8.519531v174.785157l-71.023438 55.765624c-8.089844 5.113282-13.890625 13.152344-16.191406 22.441407l-38.613282 154.40625c-1.316406 5.25-1.976562 10.644531-1.976562 16.058593v79.238282h17.042969v-79.238282c-.003907-4.019531.488281-8.027343 1.464843-11.925781l38.578126-154.398437c1.273437-5.144532 4.523437-9.585938 9.050781-12.351563.273437-.164062.535156-.351562.78125-.554687l60.886719-47.78125v90.128906l-23.066407 23.0625 12.046875 12.046875 93.015625-93.015625c6.585938-6.578125 17.257813-6.574219 23.835938.011719 3.152343 3.15625 4.925781 7.429687 4.929687 11.890625v1.125c.015625 3.949218-1.367187 7.773437-3.902344 10.804687l-58.464843 64.617188c-1.71875 1.902343-2.492188 4.476562-2.105469 7.011719l4.832031 31.164062c4.347657 27.84375-12.082031 54.746094-38.835937 63.597656l-31.976563 10.65625 5.386719 16.191406 31.984375-10.660156c.460937-.152344.894531-.355468 1.347656-.519531h57.007813l-10.0625 12.566406c-9.015625 12.886719-21.730469 22.726563-36.46875 28.210938zm64.40625-268.640625c-5.972656.058594-11.824219 1.6875-16.964844 4.726562-.050781-.894531-.261719-1.761718-.261719-2.675781-.027343-25.878906 20.933594-46.878906 46.8125-46.90625 25.882813-.023437 46.882813 20.9375 46.910157 46.816406.023437 25.449219-20.265626 46.265625-45.703126 46.894531 2.003907-4.347656 3.058594-9.070312 3.101563-13.855468v-1.125c-.023437-18.707032-15.1875-33.863282-33.894531-33.875zm18.632812 64.898437c34.738282 6.039063 67.796875-17.222656 73.839844-51.960937 6.042969-34.734375-17.222656-67.792969-51.960938-73.835938-34.734374-6.042968-67.792968 17.21875-73.835937 51.957032-.632813 3.628906-.949219 7.308593-.945313 10.992187.019532 5.421875.730469 10.820313 2.113282 16.0625l-10.632813 10.640625v-166.996094c12.761719-3.160156 22.738281-13.101562 25.945313-25.851562h92.953125c3.21875 12.734375 13.195312 22.65625 25.945312 25.808594v289.195312c-12.75 3.148438-22.726562 13.074219-25.945312 25.804688h-92.953125c-1.453125-5.769532-4.347656-11.082032-8.410156-15.429688.273437-5.101562.027343-10.222656-.734376-15.277344l-4.183593-27.160156zm-50.660156 123.875c1.371094 3.007813 4.359375 4.953125 7.667969 4.984375h107.949219c4.707031 0 8.523437-3.8125 8.523437-8.519531.050781-10.152344 8.308594-18.347656 18.460937-18.320313 4.707032 0 8.519532-3.8125 8.519532-8.519531v-304.171875c0-4.707031-3.8125-8.519531-8.519532-8.519531-10.152343.027344-18.410156-8.167969-18.460937-18.320313 0-4.707031-3.816406-8.519531-8.523437-8.519531h-107.914063c-4.707031 0-8.519531 3.8125-8.519531 8.519531-.054688 10.152344-8.3125 18.347657-18.464844 18.320313-4.707031 0-8.519531 3.8125-8.519531 8.519531v191.570313l-17.042969 17.039062v-261.011719h213.007812v408.976563h-183.652343c6.457031-6.339844 11.707031-13.804687 15.488281-22.027344zm0 0" fill="url(#a)"/></svg>