<svg height="512pt" viewBox="0 0 512 512" width="512pt" xmlns="http://www.w3.org/2000/svg"><path d="m512 256c0 141.386719-114.613281 256-256 256s-256-114.613281-256-256 114.613281-256 256-256 256 114.613281 256 256zm0 0" fill="#414952"/><path d="m261.363281 511.933594c137.78125-2.835938 248.800781-114.511719 250.59375-252.542969l-165.386719-165.390625-61.753906 90.246094 57.539063 57.539062-.105469 3.667969-131.445312-131.445313-88.589844 85.144532 68.179687 68.175781-24.964843 148.671875zm0 0" fill="#333940"/><path d="m408.027344 354.542969c0 33.941406-27.515625 61.457031-61.457032 61.457031-33.941406 0-61.457031-27.515625-61.457031-61.457031 0-33.941407 27.515625-61.457031 61.457031-61.457031 33.941407 0 61.457032 27.515624 61.457032 61.457031zm0 0" fill="#ffd400"/><path d="m346.570312 293.085938c-.023437 0-.046874 0-.070312 0v122.910156c.023438 0 .046875.003906.070312.003906 33.941407 0 61.457032-27.515625 61.457032-61.457031 0-33.941407-27.515625-61.457031-61.457032-61.457031zm0 0" fill="#fdba12"/><path d="m315.300781 184.246094v80.964844h62.535157v-80.964844h30.488281l-61.753907-90.246094-61.757812 90.246094zm0 0" fill="#09ce67"/><path d="m346.570312 94-.070312 171.210938h31.335938v-80.964844h30.488281zm0 0" fill="#1aad5c"/><path d="m226.886719 155.457031c0 33.941407-27.515625 61.457031-61.457031 61.457031-33.941407 0-61.457032-27.515624-61.457032-61.457031 0-33.941406 27.515625-61.457031 61.457032-61.457031 33.941406 0 61.457031 27.515625 61.457031 61.457031zm0 0" fill="#ffd400"/><path d="m165.429688 94c-.019532 0-.035157 0-.054688 0v122.914062h.054688c33.941406 0 61.460937-27.515624 61.460937-61.457031 0-33.941406-27.519531-61.457031-61.460937-61.457031zm0 0" fill="#fdba12"/><path d="m196.699219 325.753906v-80.964844h-62.535157v80.964844h-30.488281l61.753907 90.246094 61.757812-90.246094zm0 0" fill="#fe6a16"/><path d="m227.1875 325.753906h-30.488281v-80.964844h-31.324219l.054688 171.210938zm0 0" fill="#f24500"/></svg>