<?xml version="1.0" encoding="utf-8"?>
<!-- Generator: Adobe Illustrator 19.0.0, SVG Export Plug-In . SVG Version: 6.00 Build 0)  -->
<svg version="1.1" id="Layer_1" xmlns="http://www.w3.org/2000/svg" xmlns:xlink="http://www.w3.org/1999/xlink" x="0px" y="0px"
	 viewBox="0 0 208 212" style="enable-background:new 0 0 208 212;" xml:space="preserve">
<style type="text/css">
	.st0{fill:#9BCFE0;}
	.st1{clip-path:url(#XMLID_20_);fill:#E2B444;}
	.st2{fill:url(#XMLID_21_);}
	.st3{fill:#B70606;}
	.st4{fill:#3EA34E;}
	.st5{fill:#2EB801;}
	.st6{fill:#00726C;}
	.st7{opacity:0.28;fill:#FFFFFF;}
</style>
<g id="XMLID_278_">
	<circle id="XMLID_161_" class="st0" cx="104.2" cy="106.1" r="98.1"/>
	<g id="XMLID_5_">
		<defs>
			<rect id="XMLID_17_" x="-39.4" y="105.4" width="296.5" height="117.9"/>
		</defs>
		<clipPath id="XMLID_20_">
			<use xlink:href="#XMLID_17_"  style="overflow:visible;"/>
		</clipPath>
		<circle id="XMLID_18_" class="st1" cx="103.8" cy="105.4" r="98.1"/>
	</g>
	<radialGradient id="XMLID_21_" cx="104.0423" cy="106.1497" r="98.1039" gradientUnits="userSpaceOnUse">
		<stop  offset="0" style="stop-color:#FFFFFF"/>
		<stop  offset="1" style="stop-color:#000000"/>
	</radialGradient>
	<circle id="XMLID_4_" class="st2" cx="104" cy="106.1" r="98.1"/>
	<g id="XMLID_147_">
		<path id="XMLID_153_" class="st3" d="M122,30.9c0,0-26.1,0-33.6,0s-8.5,8.5-8.5,8.5v74.1c2.6,8.4,8.1,7.6,8.1,7.6s29,0,34.5,0
			c5.5,0,7.6-7.6,7.6-7.6s0-67.9,0-74.5S122,30.9,122,30.9z M96.1,110.3c0,0.3-0.3,0.6-0.6,0.6h-2.6c-0.3,0-0.6-0.3-0.6-0.6v-2.8
			c0-0.3,0.3-0.6,0.6-0.6h2.6c0.3,0,0.6,0.3,0.6,0.6V110.3z M109.4,112.4c0,0.3-0.3,0.6-0.6,0.6h-6.5c-0.3,0-0.6-0.3-0.6-0.6v-6.9
			c0-0.3,0.3-0.6,0.6-0.6h6.5c0.3,0,0.6,0.3,0.6,0.6V112.4z M118.5,110.3c0,0.3-0.3,0.6-0.6,0.6h-2.6c-0.3,0-0.6-0.3-0.6-0.6v-2.8
			c0-0.3,0.3-0.6,0.6-0.6h2.6c0.3,0,0.6,0.3,0.6,0.6V110.3z M123.7,99.9H86.4V39.4h37.2V99.9z"/>
		<path id="XMLID_152_" class="st4" d="M100.1,76c0,0-6.6-2.3-10.8-12.2c0,0-1.1,2.2-2.8,4.5v15.2C86.4,83.5,96.9,78.7,100.1,76z"/>
		<path id="XMLID_151_" class="st4" d="M79.9,76.1c0,0-4.9,6.7-18.4,8.2c0,0,6.7,3.1,18.4,0.7V76.1z"/>
		<path id="XMLID_150_" class="st5" d="M79.9,89.6c0,0-11.6-2.8-15.9-4.5c0,0,6.3,1.8,15.9-0.1V89.6z"/>
		<path id="XMLID_149_" class="st5" d="M86.4,83.5c0,0,12.9-5.1,19.6-13.5c6.7-8.4,12.5-18.1,14.9-26.5l2.7,2v43.4
			c0,0-17.4,5.6-37.2,1.9V83.5z"/>
		<path id="XMLID_148_" class="st5" d="M130.1,49.5l23.3,15.2c0,0-6.6,15.6-23.3,21.8V49.5z"/>
	</g>
	<g id="XMLID_142_">
		<polygon id="XMLID_146_" class="st6" points="109.5,190.6 103.7,190.6 103.7,159.5 93.9,169 90.2,165.1 106.4,148.2 123.4,165 
			119.3,169.4 109.3,159.5 		"/>
		<path id="XMLID_143_" class="st6" d="M124.2,143.5v-5.7H89.1v5.7h-6.1v-7c0,0,0.2-4.7,5.5-4.7c5.4,0,35.6,0,35.6,0
			s4.9-0.3,6.2,4.7c0,5.5,0,7,0,7H124.2z"/>
	</g>
	<path id="XMLID_3_" class="st7" d="M12.8,72.7c0,0,110.1,51.8,184.5,1.6c0,0-16.3-63.1-92.5-65.5C53.4,7.1,21.1,48,12.8,72.7z"/>
</g>
</svg>
