<?xml version="1.0" encoding="utf-8"?>
<!-- Generator: Adobe Illustrator 19.0.0, SVG Export Plug-In . SVG Version: 6.00 Build 0)  -->
<svg version="1.1" id="Layer_1" xmlns="http://www.w3.org/2000/svg" xmlns:xlink="http://www.w3.org/1999/xlink" x="0px" y="0px"
	 viewBox="0 0 208 212" style="enable-background:new 0 0 208 212;" xml:space="preserve">
<style type="text/css">
	.st0{fill:#9BCFE0;}
	.st1{clip-path:url(#XMLID_4_);fill:#C79639;}
	.st2{opacity:0.76;fill:url(#XMLID_5_);}
	.st3{fill:#00726C;}
	.st4{opacity:0.28;fill:#FFFFFF;}
</style>
<g id="XMLID_282_">
	<circle id="XMLID_258_" class="st0" cx="105" cy="106.1" r="98.1"/>
	<g id="XMLID_211_">
		<defs>
			<rect id="XMLID_240_" x="-37.8" y="106" width="296.5" height="117.9"/>
		</defs>
		<clipPath id="XMLID_4_">
			<use xlink:href="#XMLID_240_"  style="overflow:visible;"/>
		</clipPath>
		<circle id="XMLID_241_" class="st1" cx="105.3" cy="106" r="98.1"/>
	</g>
	<radialGradient id="XMLID_5_" cx="104.9797" cy="105.9869" r="98.1039" gradientUnits="userSpaceOnUse">
		<stop  offset="0" style="stop-color:#FFFFFF"/>
		<stop  offset="1" style="stop-color:#000000"/>
	</radialGradient>
	<circle id="XMLID_204_" class="st2" cx="105" cy="106" r="98.1"/>
	<g id="XMLID_168_">
		<path id="XMLID_244_" class="st3" d="M81.5,104.3c0-4.8,0-9.3,0-13.8c0-2.3-0.8-4.2-3-5.2c-2-0.9-3.9-0.4-5.8,1.5
			c-11,11-22,22-33,33c-2.5,2.5-2.5,5.2,0,7.7c11,11,22.1,22.1,33.1,33.1c1.6,1.6,3.5,2.3,5.7,1.4c2.2-0.9,3.1-2.7,3-5
			c0-4.1,0-8.2,0-12.3c0-0.5,0-1,0-1.7c0.6,0,1.1,0,1.6,0c6.2,0,12.4,0,18.6,0c4.5,0,9,0,13.5,0c3.1,0,5.1-2.1,5.1-4.9
			c0-2.8-2.2-4.8-5.2-4.8c-6.7,0-13.4,0-20.2,0c-5.9,0-11.7,0-17.6,0c-3.5,0-5.4,1.9-5.4,5.3c0,1.9,0,3.9,0,5.8
			c0,0.3-0.1,0.7-0.1,0.7c-7.2-7.2-14.5-14.5-21.5-21.5c7.1-7.1,14.4-14.4,21.6-21.6c0,1.9,0,4,0,6.2c0,3.9,1.8,5.7,5.7,5.7
			c16.9,0,33.8,0,50.7,0c0.5,0,1.1,0,1.7,0c0,4.8,0,9.3,0,13.8c0,2.3,0.8,4.2,3,5.2c2,0.9,3.9,0.4,5.8-1.5c11-11,22-22,33-33
			c2.5-2.5,2.5-5.2,0-7.7c-11-11-22.1-22.1-33.1-33.1c-1.6-1.6-3.5-2.3-5.7-1.4c-2.2,0.9-3,2.7-3,5c0,4.1,0,8.2,0,12.3
			c0,0.5,0,1,0,1.7c-0.7,0-1.3,0-1.8,0c-10.4,0-20.8,0-31.2,0c-1.1,0-2.4,0.3-3.4,0.8c-1.8,0.9-2.7,3.3-2.1,5.3
			c0.6,2.2,2.4,3.6,4.8,3.6c4.1,0,8.2,0,12.3,0c8.6,0,17.1,0,25.7,0c3.5,0,5.4-1.9,5.4-5.3c0-1.4,0-2.8,0-4.3c0-0.9,0-1.7,0-2.4
			c7.4,7.3,14.6,14.6,21.6,21.6c-7.1,7.1-14.4,14.4-21.7,21.6c0-2,0-4.3,0-6.5c0-3.6-1.9-5.4-5.4-5.4c-15,0-30,0-45,0
			C86.7,104.3,84.2,104.3,81.5,104.3z"/>
		<path id="XMLID_243_" class="st3" d="M81.5,104.3c2.7,0,5.2,0,7.7,0c15,0,30,0,45,0c3.5,0,5.4,1.9,5.4,5.4c0,2.2,0,4.4,0,6.5
			c7.3-7.3,14.5-14.5,21.7-21.6c-7-7-14.3-14.3-21.6-21.6c0,0.7,0,1.6,0,2.4c0,1.4,0,2.8,0,4.3c0,3.4-2,5.3-5.4,5.3
			c-8.6,0-17.1,0-25.7,0c-4.1,0-8.2,0-12.3,0c-2.4,0-4.3-1.5-4.8-3.6c-0.5-2,0.3-4.3,2.1-5.3c1-0.5,2.2-0.8,3.4-0.8
			c10.4-0.1,20.8,0,31.2,0c0.6,0,1.1,0,1.8,0c0-0.7,0-1.2,0-1.7c0-4.1,0-8.2,0-12.3c0-2.3,0.8-4.1,3-5c2.2-0.9,4-0.2,5.7,1.4
			c11,11,22.1,22.1,33.1,33.1c2.5,2.5,2.5,5.2,0,7.7c-11,11-22,22-33,33c-1.9,1.9-3.8,2.4-5.8,1.5c-2.2-1-3-2.8-3-5.2
			c0-4.5,0-9.1,0-13.8c-0.6,0-1.2,0-1.7,0c-16.9,0-33.8,0-50.7,0c-3.9,0-5.7-1.8-5.7-5.7c0-2.1,0-4.2,0-6.2
			c-7.2,7.2-14.5,14.5-21.6,21.6c7,7,14.3,14.3,21.5,21.5c0-0.1,0.1-0.4,0.1-0.7c0-1.9,0-3.9,0-5.8c0-3.4,1.9-5.3,5.4-5.3
			c5.9,0,11.7,0,17.6,0c6.7,0,13.4,0,20.2,0c3.1,0,5.2,2,5.2,4.8c0,2.8-2,4.9-5.1,4.9c-4.5,0-9,0-13.5,0c-6.2,0-12.4,0-18.6,0
			c-0.5,0-0.9,0-1.6,0c0,0.7,0,1.2,0,1.7c0,4.1,0,8.2,0,12.3c0,2.3-0.9,4.1-3,5c-2.2,0.9-4,0.2-5.7-1.4c-11-11-22.1-22.1-33.1-33.1
			c-2.5-2.5-2.5-5.2,0-7.7c11-11,22-22,33-33c1.9-1.9,3.8-2.4,5.8-1.5c2.2,1,3,2.8,3,5.2C81.5,95,81.5,99.5,81.5,104.3z"/>
	</g>
	<path id="XMLID_199_" class="st4" d="M12.7,71.7c0,0,110.1,51.8,184.5,1.6c0,0-16.3-63.1-92.5-65.5C53.3,6.1,21,47,12.7,71.7z"/>
</g>
</svg>
