<?xml version="1.0" encoding="utf-8"?>
<!-- Generator: Adobe Illustrator 19.0.0, SVG Export Plug-In . SVG Version: 6.00 Build 0)  -->
<svg version="1.1" id="Layer_1" xmlns="http://www.w3.org/2000/svg" xmlns:xlink="http://www.w3.org/1999/xlink" x="0px" y="0px"
	 viewBox="0 0 208 212" style="enable-background:new 0 0 208 212;" xml:space="preserve">
<style type="text/css">
	.st0{fill:#9BCFE0;}
	.st1{clip-path:url(#XMLID_21_);fill:#FD6933;}
	.st2{opacity:0.75;fill:url(#XMLID_22_);}
	.st3{fill:#009E99;}
	.st4{fill:#FFFFFF;}
	.st5{fill:#0D7F74;}
	.st6{fill:#00726C;}
	.st7{fill:#FFD639;}
	.st8{fill:#FFA64A;}
	.st9{fill:#089ABC;}
	.st10{fill:#3B3C3D;}
	.st11{opacity:0.28;fill:#FFFFFF;}
</style>
<g id="XMLID_275_">
	<circle id="XMLID_101_" class="st0" cx="104.4" cy="105.5" r="98.1"/>
	<g id="XMLID_242_">
		<defs>
			<rect id="XMLID_246_" x="-38.1" y="105.6" width="296.5" height="117.9"/>
		</defs>
		<clipPath id="XMLID_21_">
			<use xlink:href="#XMLID_246_"  style="overflow:visible;"/>
		</clipPath>
		<circle id="XMLID_247_" class="st1" cx="105.1" cy="105.6" r="98.1"/>
	</g>
	<radialGradient id="XMLID_22_" cx="104.4169" cy="105.3989" r="98.1039" gradientUnits="userSpaceOnUse">
		<stop  offset="0" style="stop-color:#FFFFFF"/>
		<stop  offset="1" style="stop-color:#000000"/>
	</radialGradient>
	<circle id="XMLID_139_" class="st2" cx="104.4" cy="105.4" r="98.1"/>
	<g id="XMLID_19_">
		<rect id="XMLID_98_" x="39.3" y="123.2" class="st3" width="22" height="43"/>
		<rect id="XMLID_97_" x="54" y="151.7" class="st4" width="3.7" height="3.8"/>
		<rect id="XMLID_96_" x="54" y="159" class="st4" width="3.7" height="3.8"/>
		<rect id="XMLID_95_" x="61.3" y="123.2" class="st5" width="7.2" height="43"/>
		<path id="XMLID_94_" class="st6" d="M68.6,126.6h11.1l18,7.4h20.7c0,0,7.5,1.2,3.3,8.9h5l22.9-11c0,0,9.1-0.2,5,8.6l-40.1,25.6
			c0,0-2.9,1.5-9.3-0.5c-6.3-1.9-31.2-10.2-31.2-10.2h-5.5V126.6z"/>
		<path id="XMLID_93_" class="st3" d="M118.1,144.5l-21.5,0.2c0,0-3.9,0.9-4.4,5.3C92.2,150,109.1,150.1,118.1,144.5z"/>
	</g>
	<g id="XMLID_3_">
		<g id="XMLID_4_">
			<circle id="XMLID_92_" class="st7" cx="113.9" cy="59.7" r="5.5"/>
			<path id="XMLID_91_" class="st8" d="M111,51.9h-0.8c-0.2,0-0.4-0.2-0.4-0.4v-2.7c0-0.2,0.2-0.4,0.4-0.4h0.8
				c0.2,0,0.4,0.2,0.4,0.4v2.7C111.4,51.7,111.2,51.9,111,51.9z"/>
			<path id="XMLID_18_" class="st8" d="M114.2,47.1h-0.8c-0.2,0-0.4-0.2-0.4-0.4v-4.3c0-0.2,0.2-0.4,0.4-0.4h0.8
				c0.2,0,0.4,0.2,0.4,0.4v4.3C114.6,47,114.4,47.1,114.2,47.1z"/>
			<path id="XMLID_17_" class="st8" d="M117.4,49.6h-0.9c-0.3,0-0.5-0.2-0.5-0.5v-4c0-0.3,0.2-0.5,0.5-0.5h0.9
				c0.3,0,0.5,0.2,0.5,0.5v4C117.8,49.4,117.6,49.6,117.4,49.6z"/>
			<path id="XMLID_5_" class="st8" d="M111,47.6h-0.8c-0.2,0-0.4-0.2-0.4-0.4v-1.6c0-0.2,0.2-0.4,0.4-0.4h0.8c0.2,0,0.4,0.2,0.4,0.4
				v1.6C111.4,47.4,111.2,47.6,111,47.6z"/>
		</g>
		<path id="XMLID_102_" class="st9" d="M129,76.5c0,0-3.6,2.1-7.8,3.5c-4.3,1.3-4.9,1.6-4.9,1.6s-0.9,11.8-5.3,16.8l0.2,0.2l9.4-9.7
			c0,0-0.9-2.6,1.5-4.1c1.4-0.8,3.1,0,3.8,1.1c0.7,1.1,0.5,3.2-0.6,4s-2.4,0.6-3.2,0.4l-9.9,9.1l0.3,0.3c0,0,6.8-4,11.4-4.6
			s5.3-0.7,5.3-0.7s2.6-8.6,5.4-12.4C134.4,81.9,130.8,78.7,129,76.5z"/>
		<path id="XMLID_103_" class="st10" d="M154.1,45.1l-24,25.5c0,0-1.8,2.7,0,5c1.8,2.3,5.1,5.5,5.1,5.5s2.9,1.9,5.6-0.6
			c2.7-2.5,24.6-23.7,24.6-23.7S163.6,47.5,154.1,45.1z"/>
		<path id="XMLID_104_" class="st6" d="M142.7,51.8c0,0-1,0.6-3.2,3.4V42.6c0,0-0.8-2.6-3.9-2.6c-3.1,0-46.7-0.4-46.7-0.4
			S85,39.7,85,43.6s0.5,61.2,0.5,61.2s0.1,3.2,4.1,3.2s46.6,0,46.6,0s3.5-0.4,3.5-3.5s0-19.3,0-19.3s1,0.1,3-1.6v21.5
			c0,0-0.5,5.7-6.5,5.7s-47,0.4-47,0.4s-6.9,0.4-6.9-6.9s0-60.6,0-60.6s-0.3-7.2,7-7.2s46.1,0,46.1,0s7.2,0.4,7.2,5.2
			S142.7,51.8,142.7,51.8z"/>
		<path id="XMLID_105_" class="st6" d="M79,46.7c0,0-6.9-0.4-6.9,5.7s-0.1,63.1-0.1,63.1s0.4,5.5,7,5.5c6.5,0,46.7,0,46.7,0
			s5.3-0.4,5.3-6.1h-3.3c0,0-0.1,2.7-2.3,2.7S79,117.6,79,117.6s-3.1,0.2-3.1-3.1c0-3.3,0-62.3,0-62.3s0.4-2,3.2-2V46.7z"/>
		<path id="XMLID_107_" class="st8" d="M127.1,68H94.4c0,0-2.1,1.4,0,2.7h31.5C125.9,70.7,125.9,69.2,127.1,68z"/>
		<path id="XMLID_106_" class="st8" d="M123.2,74.9c0,0-3.2,0.8-6.4,2.7H94.3c0,0-1.7-1.1,0-2.7H123.2z"/>
		<path id="XMLID_109_" class="st8" d="M112.6,81.6v2.8H94.2c0,0-2-1,0-2.8H112.6z"/>
		<path id="XMLID_108_" class="st8" d="M111.4,88.6c0,0-0.8,1.2-1.1,2.5H94.1c0,0-1.7-1.1,0-2.5H111.4z"/>
		<path id="XMLID_110_" class="st8" d="M108.6,95.4c0,0-0.3,1.7-1.7,2.8H94.2c0,0-1.7-1.3,0-2.8H108.6z"/>
	</g>
	<path id="XMLID_122_" class="st11" d="M12.9,72.1c0,0,110.1,51.8,184.5,1.6c0,0-16.3-63.1-92.5-65.5C53.5,6.5,21.3,47.4,12.9,72.1z
		"/>
</g>
</svg>
