<?xml version="1.0" encoding="utf-8"?>
<!-- Generator: Adobe Illustrator 19.0.0, SVG Export Plug-In . SVG Version: 6.00 Build 0)  -->
<svg version="1.1" id="Layer_1" xmlns="http://www.w3.org/2000/svg" xmlns:xlink="http://www.w3.org/1999/xlink" x="0px" y="0px"
	 viewBox="0 0 208 212" style="enable-background:new 0 0 208 212;" xml:space="preserve">
<style type="text/css">
	.st0{fill:#9BCFE0;}
	.st1{clip-path:url(#XMLID_85_);fill:#E3243F;}
	.st2{fill:url(#XMLID_86_);}
	.st3{fill:#00726C;}
	.st4{fill:#FFD639;}
	.st5{fill:#FFA64A;}
	.st6{fill:#009E99;}
	.st7{opacity:0.28;fill:#FFFFFF;}
</style>
<g id="XMLID_34_">
	<circle id="XMLID_19_" class="st0" cx="103.7" cy="105.1" r="98.1"/>
	<g id="XMLID_31_">
		<defs>
			<rect id="XMLID_4_" x="-39.3" y="105.6" width="296.5" height="117.9"/>
		</defs>
		<clipPath id="XMLID_85_">
			<use xlink:href="#XMLID_4_"  style="overflow:visible;"/>
		</clipPath>
		<circle id="XMLID_3_" class="st1" cx="103.8" cy="105.6" r="98.1"/>
	</g>
	<radialGradient id="XMLID_86_" cx="103.7013" cy="105.6643" r="98.1039" gradientUnits="userSpaceOnUse">
		<stop  offset="0" style="stop-color:#FFFFFF"/>
		<stop  offset="1" style="stop-color:#000000"/>
	</radialGradient>
	<circle id="XMLID_29_" class="st2" cx="103.7" cy="105.7" r="98.1"/>
	<g id="XMLID_22_">
		<path id="XMLID_25_" class="st3" d="M158.3,95.7c-2.3,0-10.2,0-10.2,0s-1.8-7.4-6.3-7.4v-3c0,0,3.7-7.7,9.2-7.7V76h-14.2
			c0,0-9.3,1.5-9.3,10.2H125c0,0-1.1-6.9-7.7-8.6c0,0-37.1-10.2-58,18.6c0,0-4.9-1.4-2.6-7.6c0,0-5.7,7.2,0.9,11.3
			c0,0-5.2,20.7,15.7,30.2v13.5c0,0-0.2,2.1,2.1,2.1s11.5,0,11.5,0s1.4,0,1.4-1.3s0-7.4,0-7.4h34l0.2,7.3c0,0-0.3,1.6,1.6,1.6
			c1.8,0,10.2,0,10.2,0s1.5-0.3,1.5-2.2c0-1.8,0-12.1,0-12.1s20.7-9.5,25.1-22.9v-5.6v-5C160.9,98.3,160.6,95.7,158.3,95.7z
			 M136.6,104.8c-2.8,0-5.1-2.3-5.1-5.1c0-2.8,2.3-5.1,5.1-5.1c2.8,0,5.1,2.3,5.1,5.1C141.7,102.6,139.4,104.8,136.6,104.8z"/>
		<circle id="XMLID_5_" class="st4" cx="92.6" cy="57.7" r="13.2"/>
		<path id="XMLID_17_" class="st5" d="M93.9,38.3h-2.2c-0.9,0-1.6-0.7-1.6-1.6V18.7c0-0.9,0.7-1.6,1.6-1.6h2.2
			c0.9,0,1.6,0.7,1.6,1.6v17.9C95.6,37.5,94.9,38.3,93.9,38.3z"/>
		<path id="XMLID_18_" class="st5" d="M114.2,47.3H112c-0.9,0-1.6-0.7-1.6-1.6V33.6c0-0.9,0.7-1.6,1.6-1.6h2.2
			c0.9,0,1.6,0.7,1.6,1.6v12.1C115.8,46.6,115.1,47.3,114.2,47.3z"/>
	</g>
	<g id="XMLID_27_">
		<rect id="XMLID_23_" x="80.1" y="162.9" class="st6" width="47.2" height="4.4"/>
		<rect id="XMLID_24_" x="80.1" y="173.7" class="st6" width="34" height="4.4"/>
		<rect id="XMLID_26_" x="80.1" y="184.9" class="st6" width="34" height="3.7"/>
	</g>
	<path id="XMLID_28_" class="st7" d="M11.5,71.4c0,0,110.1,51.8,184.5,1.6c0,0-16.3-63.1-92.5-65.5C52.1,5.8,19.8,46.7,11.5,71.4z"
		/>
</g>
</svg>
