<?xml version="1.0" encoding="utf-8"?>
<!-- Generator: Adobe Illustrator 19.0.0, SVG Export Plug-In . SVG Version: 6.00 Build 0)  -->
<svg version="1.1" id="Layer_1" xmlns="http://www.w3.org/2000/svg" xmlns:xlink="http://www.w3.org/1999/xlink" x="0px" y="0px"
	 viewBox="0 0 208 212" style="enable-background:new 0 0 208 212;" xml:space="preserve">
<style type="text/css">
	.st0{fill:#9BCFE0;}
	.st1{clip-path:url(#XMLID_18_);fill:#1C4969;}
	.st2{opacity:0.63;fill:url(#XMLID_19_);}
	.st3{fill:#FFD639;}
	.st4{fill:#EBEBEB;}
	.st5{fill:#81D4EF;}
	.st6{fill:#3B3C3D;}
	.st7{fill:#009E99;}
	.st8{opacity:0.28;fill:#FFFFFF;}
</style>
<g id="XMLID_274_">
	<circle id="XMLID_5_" class="st0" cx="104.5" cy="105" r="98.1"/>
	<g id="XMLID_266_">
		<defs>
			<rect id="XMLID_267_" x="-38.9" y="104.9" width="296.5" height="117.9"/>
		</defs>
		<clipPath id="XMLID_18_">
			<use xlink:href="#XMLID_267_"  style="overflow:visible;"/>
		</clipPath>
		<circle id="XMLID_268_" class="st1" cx="104.2" cy="104.9" r="98.1"/>
	</g>
	<radialGradient id="XMLID_19_" cx="104.1591" cy="105.8157" r="98.1039" gradientUnits="userSpaceOnUse">
		<stop  offset="0" style="stop-color:#FFFFFF"/>
		<stop  offset="1" style="stop-color:#000000"/>
	</radialGradient>
	<circle id="XMLID_100_" class="st2" cx="104.2" cy="105.8" r="98.1"/>
	<g id="XMLID_88_">
		<circle id="XMLID_4_" class="st3" cx="138.7" cy="146.8" r="23.1"/>
		<path id="XMLID_86_" class="st4" d="M110.7,145.5c0-14.4,11.7-26.1,26.1-26.1c2.9,0,5.7,0.5,8.3,1.3V50.6H61.1v109.8h54.3
			C112.4,156.2,110.7,151,110.7,145.5z"/>
		<circle id="XMLID_3_" class="st5" cx="103.5" cy="89.7" r="17.3"/>
		<circle id="XMLID_84_" class="st6" cx="103.6" cy="85.9" r="4.8"/>
		<polygon id="XMLID_85_" class="st6" points="95.4,89.9 98.1,89.9 98.1,95.6 109.2,95.6 109.2,89.9 111.9,89.9 111.9,98.3 
			95.4,98.3 		"/>
		<rect id="XMLID_87_" x="82" y="115.1" class="st7" width="43.2" height="2.8"/>
		<path id="XMLID_89_" class="st7" d="M81.8,125.8H118c0,0-1-0.1-2.4,2.6H81.8V125.8z"/>
		<path id="XMLID_90_" class="st7" d="M81.8,136.5h29.3c0,0-0.5,0.3-0.8,2.7H81.8V136.5z"/>
	</g>
	<path id="XMLID_99_" class="st8" d="M12.2,71.5c0,0,110.1,51.8,184.5,1.6c0,0-16.3-63.1-92.5-65.5C52.8,5.9,20.6,46.9,12.2,71.5z"
		/>
</g>
</svg>
